<?xml version="1.0" encoding="utf-8"?>
<svg xmlns="http://www.w3.org/2000/svg" xmlns:xlink="http://www.w3.org/1999/xlink" width="600" height="400" viewBox="0 0 2400 1600">
<defs>
  <clipPath id="clip310">
    <rect x="0" y="0" width="2400" height="1600"/>
  </clipPath>
</defs>
<path clip-path="url(#clip310)" d="M0 1600 L2400 1600 L2400 0 L0 0  Z" fill="#ffffff" fill-rule="evenodd" fill-opacity="1"/>
<defs>
  <clipPath id="clip311">
    <rect x="480" y="0" width="1681" height="1600"/>
  </clipPath>
</defs>
<path clip-path="url(#clip310)" d="M249.395 1423.18 L2352.76 1423.18 L2352.76 47.2441 L249.395 47.2441  Z" fill="#ffffff" fill-rule="evenodd" fill-opacity="1"/>
<defs>
  <clipPath id="clip312">
    <rect x="249" y="47" width="2104" height="1377"/>
  </clipPath>
</defs>
<polyline clip-path="url(#clip312)" style="stroke:#000000; stroke-linecap:round; stroke-linejoin:round; stroke-width:2; stroke-opacity:0.1; fill:none" points="410.366,1423.18 410.366,47.2441 "/>
<polyline clip-path="url(#clip312)" style="stroke:#000000; stroke-linecap:round; stroke-linejoin:round; stroke-width:2; stroke-opacity:0.1; fill:none" points="924.808,1423.18 924.808,47.2441 "/>
<polyline clip-path="url(#clip312)" style="stroke:#000000; stroke-linecap:round; stroke-linejoin:round; stroke-width:2; stroke-opacity:0.1; fill:none" points="1439.25,1423.18 1439.25,47.2441 "/>
<polyline clip-path="url(#clip312)" style="stroke:#000000; stroke-linecap:round; stroke-linejoin:round; stroke-width:2; stroke-opacity:0.1; fill:none" points="1953.69,1423.18 1953.69,47.2441 "/>
<polyline clip-path="url(#clip312)" style="stroke:#000000; stroke-linecap:round; stroke-linejoin:round; stroke-width:2; stroke-opacity:0.1; fill:none" points="249.395,1252.17 2352.76,1252.17 "/>
<polyline clip-path="url(#clip312)" style="stroke:#000000; stroke-linecap:round; stroke-linejoin:round; stroke-width:2; stroke-opacity:0.1; fill:none" points="249.395,1027.62 2352.76,1027.62 "/>
<polyline clip-path="url(#clip312)" style="stroke:#000000; stroke-linecap:round; stroke-linejoin:round; stroke-width:2; stroke-opacity:0.1; fill:none" points="249.395,803.072 2352.76,803.072 "/>
<polyline clip-path="url(#clip312)" style="stroke:#000000; stroke-linecap:round; stroke-linejoin:round; stroke-width:2; stroke-opacity:0.1; fill:none" points="249.395,578.522 2352.76,578.522 "/>
<polyline clip-path="url(#clip312)" style="stroke:#000000; stroke-linecap:round; stroke-linejoin:round; stroke-width:2; stroke-opacity:0.1; fill:none" points="249.395,353.971 2352.76,353.971 "/>
<polyline clip-path="url(#clip312)" style="stroke:#000000; stroke-linecap:round; stroke-linejoin:round; stroke-width:2; stroke-opacity:0.1; fill:none" points="249.395,129.421 2352.76,129.421 "/>
<polyline clip-path="url(#clip310)" style="stroke:#000000; stroke-linecap:round; stroke-linejoin:round; stroke-width:4; stroke-opacity:1; fill:none" points="249.395,1423.18 2352.76,1423.18 "/>
<polyline clip-path="url(#clip310)" style="stroke:#000000; stroke-linecap:round; stroke-linejoin:round; stroke-width:4; stroke-opacity:1; fill:none" points="410.366,1423.18 410.366,1404.28 "/>
<polyline clip-path="url(#clip310)" style="stroke:#000000; stroke-linecap:round; stroke-linejoin:round; stroke-width:4; stroke-opacity:1; fill:none" points="924.808,1423.18 924.808,1404.28 "/>
<polyline clip-path="url(#clip310)" style="stroke:#000000; stroke-linecap:round; stroke-linejoin:round; stroke-width:4; stroke-opacity:1; fill:none" points="1439.25,1423.18 1439.25,1404.28 "/>
<polyline clip-path="url(#clip310)" style="stroke:#000000; stroke-linecap:round; stroke-linejoin:round; stroke-width:4; stroke-opacity:1; fill:none" points="1953.69,1423.18 1953.69,1404.28 "/>
<path clip-path="url(#clip310)" d="M414.145 1472.22 Q414.442 1472.51 414.442 1472.93 Q414.442 1473.35 414.145 1473.65 Q413.849 1473.94 413.429 1473.94 L381.759 1473.94 Q381.339 1473.94 381.043 1473.65 Q380.746 1473.35 380.746 1472.93 Q380.746 1472.51 381.043 1472.22 Q381.339 1471.92 381.759 1471.92 L413.429 1471.92 Q413.849 1471.92 414.145 1472.22 Z" fill="#000000" fill-rule="nonzero" fill-opacity="1" /><path clip-path="url(#clip310)" d="M419.778 1485.58 Q419.778 1484.67 419.852 1484.39 Q419.951 1484.12 420.346 1483.7 L430.054 1472.88 Q435.366 1466.9 435.366 1461.69 Q435.366 1458.31 433.587 1455.89 Q431.833 1453.47 428.597 1453.47 Q426.373 1453.47 424.496 1454.82 Q422.619 1456.18 421.754 1458.6 Q421.902 1458.55 422.421 1458.55 Q423.681 1458.55 424.373 1459.34 Q425.089 1460.14 425.089 1461.2 Q425.089 1462.56 424.2 1463.22 Q423.335 1463.87 422.47 1463.87 Q422.125 1463.87 421.655 1463.79 Q421.21 1463.72 420.494 1463.03 Q419.778 1462.31 419.778 1461.05 Q419.778 1457.52 422.446 1454.7 Q425.138 1451.88 429.239 1451.88 Q433.883 1451.88 436.922 1454.65 Q439.985 1457.39 439.985 1461.69 Q439.985 1463.2 439.516 1464.58 Q439.071 1465.94 438.453 1467 Q437.861 1468.07 436.23 1469.77 Q434.6 1471.47 433.29 1472.68 Q431.981 1473.9 429.041 1476.46 L423.681 1481.68 L432.796 1481.68 Q437.243 1481.68 437.589 1481.28 Q438.083 1480.57 438.7 1476.79 L439.985 1476.79 L438.552 1485.58 L419.778 1485.58 Z" fill="#000000" fill-rule="nonzero" fill-opacity="1" /><path clip-path="url(#clip310)" d="M929.353 1472.22 Q929.65 1472.51 929.65 1472.93 Q929.65 1473.35 929.353 1473.65 Q929.057 1473.94 928.637 1473.94 L896.967 1473.94 Q896.547 1473.94 896.251 1473.65 Q895.954 1473.35 895.954 1472.93 Q895.954 1472.51 896.251 1472.22 Q896.547 1471.92 896.967 1471.92 L928.637 1471.92 Q929.057 1471.92 929.353 1472.22 Z" fill="#000000" fill-rule="nonzero" fill-opacity="1" /><path clip-path="url(#clip310)" d="M936.962 1456.7 L936.962 1455.12 Q943.039 1455.12 946.176 1451.88 Q947.041 1451.88 947.189 1452.08 Q947.337 1452.28 947.337 1453.19 L947.337 1481.58 Q947.337 1483.08 948.078 1483.55 Q948.819 1484.02 952.056 1484.02 L953.661 1484.02 L953.661 1485.58 Q951.883 1485.43 945.46 1485.43 Q939.037 1485.43 937.283 1485.58 L937.283 1484.02 L938.889 1484.02 Q942.075 1484.02 942.841 1483.58 Q943.607 1483.11 943.607 1481.58 L943.607 1455.37 Q940.964 1456.7 936.962 1456.7 Z" fill="#000000" fill-rule="nonzero" fill-opacity="1" /><path clip-path="url(#clip310)" d="M1428.6 1469.4 Q1428.6 1461.96 1430.48 1457.91 Q1433.1 1451.88 1439.27 1451.88 Q1440.58 1451.88 1441.94 1452.26 Q1443.33 1452.6 1445.06 1453.96 Q1446.81 1455.32 1447.87 1457.54 Q1449.9 1461.84 1449.9 1469.4 Q1449.9 1476.79 1448.02 1480.81 Q1445.28 1486.69 1439.23 1486.69 Q1436.95 1486.69 1434.63 1485.53 Q1432.33 1484.37 1430.88 1481.58 Q1428.6 1477.4 1428.6 1469.4 M1432.8 1468.78 Q1432.8 1476.41 1433.35 1479.45 Q1433.96 1482.74 1435.64 1484.17 Q1437.35 1485.58 1439.23 1485.58 Q1441.25 1485.58 1442.93 1484.07 Q1444.64 1482.54 1445.15 1479.26 Q1445.72 1476.02 1445.7 1468.78 Q1445.7 1461.74 1445.2 1458.92 Q1444.54 1455.64 1442.76 1454.33 Q1441 1453 1439.23 1453 Q1438.56 1453 1437.84 1453.19 Q1437.15 1453.39 1436.14 1453.96 Q1435.12 1454.53 1434.33 1455.94 Q1433.57 1457.34 1433.2 1459.47 Q1432.8 1462.21 1432.8 1468.78 Z" fill="#000000" fill-rule="nonzero" fill-opacity="1" /><path clip-path="url(#clip310)" d="M1945.34 1456.7 L1945.34 1455.12 Q1951.42 1455.12 1954.56 1451.88 Q1955.42 1451.88 1955.57 1452.08 Q1955.72 1452.28 1955.72 1453.19 L1955.72 1481.58 Q1955.72 1483.08 1956.46 1483.55 Q1957.2 1484.02 1960.44 1484.02 L1962.04 1484.02 L1962.04 1485.58 Q1960.26 1485.43 1953.84 1485.43 Q1947.42 1485.43 1945.66 1485.58 L1945.66 1484.02 L1947.27 1484.02 Q1950.46 1484.02 1951.22 1483.58 Q1951.99 1483.11 1951.99 1481.58 L1951.99 1455.37 Q1949.34 1456.7 1945.34 1456.7 Z" fill="#000000" fill-rule="nonzero" fill-opacity="1" /><path clip-path="url(#clip310)" d="M1163.17 1555.46 L1163.17 1553.43 Q1166.68 1553.43 1167.49 1553.01 Q1168.29 1552.56 1168.29 1550.44 L1168.29 1532.76 Q1168.29 1530.31 1167.42 1529.7 Q1166.59 1529.08 1163.17 1529.08 L1163.17 1527.02 L1172.45 1526.32 L1172.45 1533.24 Q1175.54 1526.32 1182.21 1526.32 Q1189.94 1526.32 1191 1532.76 Q1192.13 1530.24 1194.48 1528.28 Q1196.86 1526.32 1200.56 1526.32 Q1205.52 1526.32 1207.49 1528.76 Q1208.94 1530.41 1209.23 1532.24 Q1209.52 1534.08 1209.52 1538.84 L1209.52 1551.44 Q1209.58 1552.82 1210.64 1553.14 Q1211.71 1553.43 1214.67 1553.43 L1214.67 1555.46 Q1207.94 1555.27 1207.29 1555.27 Q1206.78 1555.27 1199.82 1555.46 L1199.82 1553.43 Q1203.33 1553.43 1204.14 1553.01 Q1204.98 1552.56 1204.98 1550.44 L1204.98 1535.08 Q1204.98 1531.73 1203.95 1529.76 Q1202.91 1527.76 1200.08 1527.76 Q1196.67 1527.76 1193.93 1530.63 Q1191.19 1533.5 1191.19 1538.33 L1191.19 1550.44 Q1191.19 1552.56 1192 1553.01 Q1192.83 1553.43 1196.34 1553.43 L1196.34 1555.46 Q1189.61 1555.27 1188.94 1555.27 Q1188.42 1555.27 1181.5 1555.46 L1181.5 1553.43 Q1185.01 1553.43 1185.81 1553.01 Q1186.65 1552.56 1186.65 1550.44 L1186.65 1535.08 Q1186.65 1531.73 1185.62 1529.76 Q1184.59 1527.76 1181.76 1527.76 Q1178.34 1527.76 1175.6 1530.63 Q1172.87 1533.5 1172.87 1538.33 L1172.87 1550.44 Q1172.87 1552.56 1173.67 1553.01 Q1174.51 1553.43 1177.99 1553.43 L1177.99 1555.46 Q1171.26 1555.27 1170.61 1555.27 Q1170.1 1555.27 1163.17 1555.46 Z" fill="#000000" fill-rule="nonzero" fill-opacity="1" /><path clip-path="url(#clip310)" d="M1218.35 1549.18 Q1218.35 1543.58 1224.95 1540.61 Q1228.92 1538.71 1237.1 1538.23 L1237.1 1535.82 Q1237.1 1531.73 1234.94 1529.57 Q1232.81 1527.38 1230.11 1527.38 Q1225.28 1527.38 1222.96 1530.41 Q1224.92 1530.47 1225.63 1531.47 Q1226.34 1532.43 1226.34 1533.43 Q1226.34 1534.75 1225.5 1535.62 Q1224.7 1536.46 1223.31 1536.46 Q1221.99 1536.46 1221.12 1535.65 Q1220.25 1534.82 1220.25 1533.37 Q1220.25 1530.15 1223.15 1528.02 Q1226.08 1525.9 1230.24 1525.9 Q1235.65 1525.9 1239.25 1529.54 Q1240.38 1530.66 1240.93 1532.11 Q1241.51 1533.56 1241.57 1534.53 Q1241.64 1535.46 1241.64 1537.33 L1241.64 1550.5 Q1241.64 1550.89 1241.77 1551.53 Q1241.89 1552.18 1242.47 1553.01 Q1243.09 1553.82 1244.08 1553.82 Q1246.47 1553.82 1246.44 1549.6 L1246.44 1545.9 L1248.11 1545.9 L1248.11 1549.6 Q1248.11 1553.11 1246.24 1554.5 Q1244.41 1555.85 1242.7 1555.85 Q1240.51 1555.85 1239.12 1554.24 Q1237.74 1552.63 1237.55 1550.44 Q1236.55 1552.95 1234.26 1554.59 Q1232.01 1556.2 1228.92 1556.2 Q1226.53 1556.2 1224.28 1555.59 Q1222.06 1555.01 1220.19 1553.37 Q1218.35 1551.69 1218.35 1549.18 M1223.44 1549.12 Q1223.44 1551.56 1225.18 1553.14 Q1226.92 1554.72 1229.37 1554.72 Q1232.14 1554.72 1234.62 1552.6 Q1237.1 1550.44 1237.1 1546.22 L1237.1 1539.62 Q1229.78 1539.87 1226.6 1542.8 Q1223.44 1545.7 1223.44 1549.12 Z" fill="#000000" fill-rule="nonzero" fill-opacity="1" /><path clip-path="url(#clip310)" d="M1251.02 1554.59 L1251.02 1545.9 Q1251.02 1545.16 1251.05 1544.9 Q1251.08 1544.64 1251.27 1544.45 Q1251.47 1544.25 1251.85 1544.25 Q1252.3 1544.25 1252.47 1544.45 Q1252.66 1544.64 1252.79 1545.38 Q1253.79 1549.92 1255.91 1552.34 Q1258.07 1554.72 1261.97 1554.72 Q1265.67 1554.72 1267.54 1553.08 Q1269.41 1551.44 1269.41 1548.73 Q1269.41 1543.9 1262.55 1542.68 Q1258.58 1541.87 1256.94 1541.36 Q1255.3 1540.81 1253.85 1539.62 Q1251.02 1537.3 1251.02 1534.01 Q1251.02 1530.73 1253.5 1528.31 Q1256.01 1525.9 1261.55 1525.9 Q1265.25 1525.9 1267.76 1527.76 Q1268.5 1527.18 1268.89 1526.7 Q1269.76 1525.9 1270.21 1525.9 Q1270.73 1525.9 1270.82 1526.25 Q1270.92 1526.57 1270.92 1527.51 L1270.92 1534.14 Q1270.92 1534.88 1270.89 1535.14 Q1270.85 1535.4 1270.66 1535.59 Q1270.47 1535.75 1270.05 1535.75 Q1269.31 1535.75 1269.28 1535.14 Q1268.76 1527.15 1261.55 1527.15 Q1257.65 1527.15 1255.91 1528.67 Q1254.17 1530.15 1254.17 1532.18 Q1254.17 1533.3 1254.69 1534.17 Q1255.23 1535.01 1255.91 1535.53 Q1256.62 1536.01 1257.91 1536.49 Q1259.2 1536.94 1259.97 1537.1 Q1260.77 1537.27 1262.29 1537.59 Q1267.57 1538.59 1269.79 1540.74 Q1272.56 1543.51 1272.56 1547.02 Q1272.56 1550.92 1269.92 1553.56 Q1267.28 1556.2 1261.97 1556.2 Q1257.68 1556.2 1254.69 1553.34 Q1254.3 1553.72 1254.01 1554.08 Q1253.72 1554.4 1253.59 1554.53 Q1253.5 1554.66 1253.46 1554.75 Q1253.43 1554.82 1253.37 1554.88 Q1252.05 1556.2 1251.72 1556.2 Q1251.21 1556.2 1251.11 1555.85 Q1251.02 1555.53 1251.02 1554.59 Z" fill="#000000" fill-rule="nonzero" fill-opacity="1" /><path clip-path="url(#clip310)" d="M1276.46 1554.59 L1276.46 1545.9 Q1276.46 1545.16 1276.49 1544.9 Q1276.53 1544.64 1276.72 1544.45 Q1276.91 1544.25 1277.3 1544.25 Q1277.75 1544.25 1277.91 1544.45 Q1278.1 1544.64 1278.23 1545.38 Q1279.23 1549.92 1281.36 1552.34 Q1283.52 1554.72 1287.41 1554.72 Q1291.12 1554.72 1292.98 1553.08 Q1294.85 1551.44 1294.85 1548.73 Q1294.85 1543.9 1287.99 1542.68 Q1284.03 1541.87 1282.39 1541.36 Q1280.75 1540.81 1279.3 1539.62 Q1276.46 1537.3 1276.46 1534.01 Q1276.46 1530.73 1278.94 1528.31 Q1281.45 1525.9 1286.99 1525.9 Q1290.7 1525.9 1293.21 1527.76 Q1293.95 1527.18 1294.34 1526.7 Q1295.21 1525.9 1295.66 1525.9 Q1296.17 1525.9 1296.27 1526.25 Q1296.37 1526.57 1296.37 1527.51 L1296.37 1534.14 Q1296.37 1534.88 1296.33 1535.14 Q1296.3 1535.4 1296.11 1535.59 Q1295.91 1535.75 1295.5 1535.75 Q1294.76 1535.75 1294.72 1535.14 Q1294.21 1527.15 1286.99 1527.15 Q1283.1 1527.15 1281.36 1528.67 Q1279.62 1530.15 1279.62 1532.18 Q1279.62 1533.3 1280.13 1534.17 Q1280.68 1535.01 1281.36 1535.53 Q1282.07 1536.01 1283.35 1536.49 Q1284.64 1536.94 1285.42 1537.1 Q1286.22 1537.27 1287.73 1537.59 Q1293.02 1538.59 1295.24 1540.74 Q1298.01 1543.51 1298.01 1547.02 Q1298.01 1550.92 1295.37 1553.56 Q1292.73 1556.2 1287.41 1556.2 Q1283.13 1556.2 1280.13 1553.34 Q1279.75 1553.72 1279.46 1554.08 Q1279.17 1554.4 1279.04 1554.53 Q1278.94 1554.66 1278.91 1554.75 Q1278.88 1554.82 1278.81 1554.88 Q1277.49 1556.2 1277.17 1556.2 Q1276.66 1556.2 1276.56 1555.85 Q1276.46 1555.53 1276.46 1554.59 Z" fill="#000000" fill-rule="nonzero" fill-opacity="1" /><path clip-path="url(#clip310)" d="M1316.7 1568.34 Q1316.7 1568.05 1316.93 1567.41 L1337.97 1511.2 Q1337.97 1511.14 1338.11 1510.82 Q1338.26 1510.5 1338.35 1510.29 Q1338.43 1510.06 1338.61 1509.89 Q1338.81 1509.71 1339.05 1509.71 Q1339.63 1509.71 1339.63 1510.44 Q1339.63 1510.5 1339.45 1511.2 L1318.36 1567.47 Q1318.01 1568.49 1317.77 1568.78 Q1317.57 1569.07 1317.22 1569.07 Q1316.7 1569.07 1316.7 1568.34 Z" fill="#000000" fill-rule="nonzero" fill-opacity="1" /><path clip-path="url(#clip310)" d="M1367.77 1555.46 L1367.77 1553.43 Q1371.28 1553.43 1372.09 1553.01 Q1372.93 1552.56 1372.93 1550.44 L1372.93 1516.14 Q1372.93 1513.69 1372.06 1513.08 Q1371.22 1512.47 1367.77 1512.47 L1367.77 1510.41 L1377.27 1509.7 L1377.27 1541.36 L1386.58 1533.3 Q1388.03 1532.05 1388.03 1530.73 Q1388.03 1529.21 1386.13 1529.08 L1386.13 1527.02 Q1388.9 1527.22 1393.5 1527.22 Q1396.21 1527.22 1398.11 1527.02 L1398.11 1529.08 Q1393.96 1529.28 1389.8 1532.63 Q1388.87 1533.37 1386.64 1535.3 Q1384.45 1537.2 1384.45 1537.39 Q1384.45 1537.46 1384.52 1537.62 Q1384.62 1537.78 1384.74 1537.91 Q1384.87 1538.04 1384.87 1538.1 L1393.25 1549.92 Q1394.95 1552.31 1396.21 1552.89 Q1397.47 1553.43 1399.66 1553.43 L1399.66 1555.46 Q1396.82 1555.27 1393.89 1555.27 Q1392.31 1555.27 1386.77 1555.46 L1386.77 1553.43 Q1389.16 1553.43 1389.16 1551.89 Q1389.16 1550.82 1383.81 1543.45 Q1383.42 1542.93 1382.55 1541.81 Q1381.75 1540.61 1381.3 1540.03 L1377.08 1543.64 L1377.08 1550.44 Q1377.08 1552.56 1377.88 1553.01 Q1378.72 1553.43 1382.23 1553.43 L1382.23 1555.46 Q1378.27 1555.27 1374.99 1555.27 Q1374.31 1555.27 1367.77 1555.46 Z" fill="#000000" fill-rule="nonzero" fill-opacity="1" /><path clip-path="url(#clip310)" d="M1399.27 1560.68 Q1399.27 1558.55 1400.88 1556.72 Q1402.53 1554.88 1405.36 1554.08 Q1402.46 1552.24 1402.46 1548.22 Q1402.46 1545.12 1404.49 1542.74 Q1401.4 1540.16 1401.4 1535.94 Q1401.4 1532.05 1404.49 1529.18 Q1407.58 1526.32 1412.09 1526.32 Q1416.05 1526.32 1419.08 1528.7 Q1422.24 1525.61 1426.07 1525.57 Q1427.78 1525.57 1428.58 1526.64 Q1429.42 1527.7 1429.42 1528.83 Q1429.42 1529.83 1428.77 1530.31 Q1428.16 1530.79 1427.52 1530.79 Q1426.71 1530.79 1426.13 1530.28 Q1425.59 1529.73 1425.59 1528.89 Q1425.59 1527.51 1426.65 1527.09 Q1426.46 1527.02 1426 1527.02 Q1422.78 1527.02 1420.05 1529.6 Q1422.75 1532.11 1422.75 1536.01 Q1422.75 1539.91 1419.66 1542.77 Q1416.57 1545.64 1412.09 1545.64 Q1408.39 1545.64 1405.55 1543.58 Q1404.43 1544.9 1404.43 1546.7 Q1404.43 1548.34 1405.42 1549.63 Q1406.42 1550.92 1407.94 1551.11 Q1408.39 1551.18 1412.86 1551.18 Q1415.51 1551.18 1416.95 1551.24 Q1418.4 1551.31 1420.47 1551.76 Q1422.56 1552.18 1424.2 1553.01 Q1428.48 1555.4 1428.52 1560.55 Q1428.52 1564.32 1424.17 1566.67 Q1419.85 1569.05 1413.86 1569.05 Q1407.81 1569.05 1403.52 1566.64 Q1399.27 1564.25 1399.27 1560.68 M1402.72 1560.68 Q1402.72 1563.38 1405.91 1565.45 Q1409.1 1567.54 1413.93 1567.54 Q1418.66 1567.54 1421.85 1565.48 Q1425.07 1563.45 1425.07 1560.68 Q1425.07 1558.71 1423.94 1557.46 Q1422.82 1556.2 1420.5 1555.69 Q1418.21 1555.2 1416.6 1555.11 Q1414.99 1555.01 1412.03 1555.01 L1408.13 1555.01 Q1405.88 1555.14 1404.3 1556.78 Q1402.72 1558.42 1402.72 1560.68 M1406.33 1536.01 Q1406.33 1544.13 1412.09 1544.13 Q1414.99 1544.13 1416.76 1541.48 Q1417.82 1539.71 1417.82 1535.94 Q1417.82 1527.83 1412.09 1527.83 Q1409.19 1527.83 1407.39 1530.47 Q1406.33 1532.24 1406.33 1536.01 Z" fill="#000000" fill-rule="nonzero" fill-opacity="1" /><polyline clip-path="url(#clip310)" style="stroke:#000000; stroke-linecap:round; stroke-linejoin:round; stroke-width:4; stroke-opacity:1; fill:none" points="249.395,1423.18 249.395,47.2441 "/>
<polyline clip-path="url(#clip310)" style="stroke:#000000; stroke-linecap:round; stroke-linejoin:round; stroke-width:4; stroke-opacity:1; fill:none" points="249.395,1252.17 268.292,1252.17 "/>
<polyline clip-path="url(#clip310)" style="stroke:#000000; stroke-linecap:round; stroke-linejoin:round; stroke-width:4; stroke-opacity:1; fill:none" points="249.395,1027.62 268.292,1027.62 "/>
<polyline clip-path="url(#clip310)" style="stroke:#000000; stroke-linecap:round; stroke-linejoin:round; stroke-width:4; stroke-opacity:1; fill:none" points="249.395,803.072 268.292,803.072 "/>
<polyline clip-path="url(#clip310)" style="stroke:#000000; stroke-linecap:round; stroke-linejoin:round; stroke-width:4; stroke-opacity:1; fill:none" points="249.395,578.522 268.292,578.522 "/>
<polyline clip-path="url(#clip310)" style="stroke:#000000; stroke-linecap:round; stroke-linejoin:round; stroke-width:4; stroke-opacity:1; fill:none" points="249.395,353.971 268.292,353.971 "/>
<polyline clip-path="url(#clip310)" style="stroke:#000000; stroke-linecap:round; stroke-linejoin:round; stroke-width:4; stroke-opacity:1; fill:none" points="249.395,129.421 268.292,129.421 "/>
<path clip-path="url(#clip310)" d="M147.659 1256.09 Q147.956 1256.38 147.956 1256.8 Q147.956 1257.22 147.659 1257.52 Q147.363 1257.82 146.943 1257.82 L115.273 1257.82 Q114.853 1257.82 114.557 1257.52 Q114.26 1257.22 114.26 1256.8 Q114.26 1256.38 114.557 1256.09 Q114.853 1255.79 115.273 1255.79 L146.943 1255.79 Q147.363 1255.79 147.659 1256.09 Z" fill="#000000" fill-rule="nonzero" fill-opacity="1" /><path clip-path="url(#clip310)" d="M155.268 1240.57 L155.268 1238.99 Q161.345 1238.99 164.482 1235.76 Q165.347 1235.76 165.495 1235.96 Q165.643 1236.15 165.643 1237.07 L165.643 1265.45 Q165.643 1266.96 166.384 1267.43 Q167.125 1267.9 170.361 1267.9 L171.967 1267.9 L171.967 1269.45 Q170.189 1269.3 163.766 1269.3 Q157.343 1269.3 155.589 1269.45 L155.589 1267.9 L157.195 1267.9 Q160.381 1267.9 161.147 1267.45 Q161.913 1266.98 161.913 1265.45 L161.913 1239.24 Q159.27 1240.57 155.268 1240.57 Z" fill="#000000" fill-rule="nonzero" fill-opacity="1" /><path clip-path="url(#clip310)" d="M181.132 1268.64 Q180.366 1267.82 180.366 1266.76 Q180.366 1265.7 181.132 1264.93 Q181.898 1264.14 183.059 1264.14 Q184.171 1264.14 184.912 1264.88 Q185.678 1265.6 185.678 1266.78 Q185.678 1267.95 184.862 1268.71 Q184.072 1269.45 183.059 1269.45 Q181.898 1269.45 181.132 1268.64 Z" fill="#000000" fill-rule="nonzero" fill-opacity="1" /><path clip-path="url(#clip310)" d="M192.1 1253.27 Q192.1 1245.84 193.978 1241.79 Q196.596 1235.76 202.772 1235.76 Q204.082 1235.76 205.44 1236.13 Q206.824 1236.47 208.553 1237.83 Q210.307 1239.19 211.369 1241.41 Q213.395 1245.71 213.395 1253.27 Q213.395 1260.66 211.517 1264.69 Q208.775 1270.56 202.723 1270.56 Q200.45 1270.56 198.128 1269.4 Q195.831 1268.24 194.373 1265.45 Q192.1 1261.28 192.1 1253.27 M196.3 1252.65 Q196.3 1260.29 196.843 1263.33 Q197.461 1266.61 199.141 1268.04 Q200.845 1269.45 202.723 1269.45 Q204.749 1269.45 206.428 1267.95 Q208.133 1266.41 208.652 1263.13 Q209.22 1259.89 209.195 1252.65 Q209.195 1245.61 208.701 1242.8 Q208.034 1239.51 206.255 1238.2 Q204.502 1236.87 202.723 1236.87 Q202.056 1236.87 201.339 1237.07 Q200.648 1237.26 199.635 1237.83 Q198.622 1238.4 197.832 1239.81 Q197.066 1241.22 196.695 1243.34 Q196.3 1246.08 196.3 1252.65 Z" fill="#000000" fill-rule="nonzero" fill-opacity="1" /><path clip-path="url(#clip310)" d="M148.203 1031.54 Q148.499 1031.83 148.499 1032.25 Q148.499 1032.67 148.203 1032.97 Q147.906 1033.27 147.486 1033.27 L115.816 1033.27 Q115.397 1033.27 115.1 1032.97 Q114.804 1032.67 114.804 1032.25 Q114.804 1031.83 115.1 1031.54 Q115.397 1031.24 115.816 1031.24 L147.486 1031.24 Q147.906 1031.24 148.203 1031.54 Z" fill="#000000" fill-rule="nonzero" fill-opacity="1" /><path clip-path="url(#clip310)" d="M153.291 1028.72 Q153.291 1021.29 155.169 1017.23 Q157.787 1011.21 163.963 1011.21 Q165.273 1011.21 166.631 1011.58 Q168.015 1011.92 169.744 1013.28 Q171.498 1014.64 172.56 1016.86 Q174.586 1021.16 174.586 1028.72 Q174.586 1036.11 172.708 1040.13 Q169.966 1046.01 163.914 1046.01 Q161.641 1046.01 159.319 1044.85 Q157.022 1043.69 155.564 1040.9 Q153.291 1036.73 153.291 1028.72 M157.491 1028.1 Q157.491 1035.74 158.035 1038.78 Q158.652 1042.06 160.332 1043.49 Q162.036 1044.9 163.914 1044.9 Q165.94 1044.9 167.619 1043.4 Q169.324 1041.86 169.843 1038.58 Q170.411 1035.34 170.386 1028.1 Q170.386 1021.06 169.892 1018.25 Q169.225 1014.96 167.446 1013.65 Q165.693 1012.32 163.914 1012.32 Q163.247 1012.32 162.531 1012.52 Q161.839 1012.71 160.826 1013.28 Q159.813 1013.85 159.023 1015.26 Q158.257 1016.67 157.886 1018.79 Q157.491 1021.53 157.491 1028.1 Z" fill="#000000" fill-rule="nonzero" fill-opacity="1" /><path clip-path="url(#clip310)" d="M181.676 1044.09 Q180.91 1043.27 180.91 1042.21 Q180.91 1041.15 181.676 1040.38 Q182.441 1039.59 183.602 1039.59 Q184.714 1039.59 185.455 1040.33 Q186.221 1041.05 186.221 1042.23 Q186.221 1043.4 185.406 1044.16 Q184.615 1044.9 183.602 1044.9 Q182.441 1044.9 181.676 1044.09 Z" fill="#000000" fill-rule="nonzero" fill-opacity="1" /><path clip-path="url(#clip310)" d="M193.187 1036.75 Q193.187 1035.24 194.003 1034.68 Q194.818 1034.08 195.682 1034.08 Q196.843 1034.08 197.51 1034.82 Q198.202 1035.54 198.202 1036.55 Q198.202 1037.57 197.51 1038.31 Q196.843 1039.02 195.682 1039.02 Q195.114 1039.02 194.818 1038.92 Q195.485 1041.25 197.51 1042.93 Q199.561 1044.61 202.254 1044.61 Q205.638 1044.61 207.664 1041.32 Q208.874 1039.2 208.874 1034.38 Q208.874 1030.13 207.96 1028.01 Q206.552 1024.77 203.662 1024.77 Q199.561 1024.77 197.14 1028.3 Q196.843 1028.75 196.498 1028.77 Q196.004 1028.77 195.88 1028.5 Q195.781 1028.2 195.781 1027.44 L195.781 1012.47 Q195.781 1011.26 196.275 1011.26 Q196.473 1011.26 196.893 1011.4 Q200.08 1012.81 203.612 1012.84 Q207.244 1012.84 210.504 1011.36 Q210.751 1011.21 210.9 1011.21 Q211.394 1011.21 211.418 1011.78 Q211.418 1011.97 210.999 1012.57 Q210.603 1013.13 209.739 1013.9 Q208.874 1014.64 207.762 1015.36 Q206.651 1016.07 205.02 1016.57 Q203.415 1017.04 201.636 1017.04 Q199.511 1017.04 197.338 1016.37 L197.338 1026.23 Q199.956 1023.66 203.76 1023.66 Q207.812 1023.66 210.603 1026.92 Q213.395 1030.18 213.395 1034.72 Q213.395 1039.49 210.084 1042.75 Q206.799 1046.01 202.352 1046.01 Q198.301 1046.01 195.732 1043.12 Q193.187 1040.23 193.187 1036.75 Z" fill="#000000" fill-rule="nonzero" fill-opacity="1" /><path clip-path="url(#clip310)" d="M152.748 804.171 Q152.748 796.736 154.625 792.684 Q157.244 786.657 163.42 786.657 Q164.729 786.657 166.088 787.027 Q167.471 787.373 169.2 788.732 Q170.954 790.091 172.017 792.314 Q174.042 796.612 174.042 804.171 Q174.042 811.558 172.165 815.584 Q169.423 821.464 163.37 821.464 Q161.098 821.464 158.776 820.303 Q156.478 819.142 155.021 816.35 Q152.748 812.175 152.748 804.171 M156.948 803.554 Q156.948 811.187 157.491 814.226 Q158.109 817.511 159.788 818.944 Q161.493 820.352 163.37 820.352 Q165.396 820.352 167.076 818.845 Q168.78 817.314 169.299 814.028 Q169.867 810.792 169.843 803.554 Q169.843 796.513 169.349 793.697 Q168.682 790.412 166.903 789.102 Q165.149 787.768 163.37 787.768 Q162.703 787.768 161.987 787.966 Q161.295 788.164 160.283 788.732 Q159.27 789.3 158.479 790.708 Q157.713 792.116 157.343 794.241 Q156.948 796.983 156.948 803.554 Z" fill="#000000" fill-rule="nonzero" fill-opacity="1" /><path clip-path="url(#clip310)" d="M181.132 819.537 Q180.366 818.722 180.366 817.659 Q180.366 816.597 181.132 815.831 Q181.898 815.041 183.059 815.041 Q184.171 815.041 184.912 815.782 Q185.678 816.498 185.678 817.684 Q185.678 818.845 184.862 819.611 Q184.072 820.352 183.059 820.352 Q181.898 820.352 181.132 819.537 Z" fill="#000000" fill-rule="nonzero" fill-opacity="1" /><path clip-path="url(#clip310)" d="M192.1 804.171 Q192.1 796.736 193.978 792.684 Q196.596 786.657 202.772 786.657 Q204.082 786.657 205.44 787.027 Q206.824 787.373 208.553 788.732 Q210.307 790.091 211.369 792.314 Q213.395 796.612 213.395 804.171 Q213.395 811.558 211.517 815.584 Q208.775 821.464 202.723 821.464 Q200.45 821.464 198.128 820.303 Q195.831 819.142 194.373 816.35 Q192.1 812.175 192.1 804.171 M196.3 803.554 Q196.3 811.187 196.843 814.226 Q197.461 817.511 199.141 818.944 Q200.845 820.352 202.723 820.352 Q204.749 820.352 206.428 818.845 Q208.133 817.314 208.652 814.028 Q209.22 810.792 209.195 803.554 Q209.195 796.513 208.701 793.697 Q208.034 790.412 206.255 789.102 Q204.502 787.768 202.723 787.768 Q202.056 787.768 201.339 787.966 Q200.648 788.164 199.635 788.732 Q198.622 789.3 197.832 790.708 Q197.066 792.116 196.695 794.241 Q196.3 796.983 196.3 803.554 Z" fill="#000000" fill-rule="nonzero" fill-opacity="1" /><path clip-path="url(#clip310)" d="M153.291 579.621 Q153.291 572.185 155.169 568.134 Q157.787 562.106 163.963 562.106 Q165.273 562.106 166.631 562.477 Q168.015 562.823 169.744 564.181 Q171.498 565.54 172.56 567.763 Q174.586 572.062 174.586 579.621 Q174.586 587.007 172.708 591.034 Q169.966 596.913 163.914 596.913 Q161.641 596.913 159.319 595.752 Q157.022 594.591 155.564 591.8 Q153.291 587.625 153.291 579.621 M157.491 579.004 Q157.491 586.637 158.035 589.675 Q158.652 592.961 160.332 594.394 Q162.036 595.802 163.914 595.802 Q165.94 595.802 167.619 594.295 Q169.324 592.763 169.843 589.478 Q170.411 586.242 170.386 579.004 Q170.386 571.963 169.892 569.147 Q169.225 565.861 167.446 564.552 Q165.693 563.218 163.914 563.218 Q163.247 563.218 162.531 563.416 Q161.839 563.613 160.826 564.181 Q159.813 564.75 159.023 566.158 Q158.257 567.566 157.886 569.69 Q157.491 572.432 157.491 579.004 Z" fill="#000000" fill-rule="nonzero" fill-opacity="1" /><path clip-path="url(#clip310)" d="M181.676 594.987 Q180.91 594.171 180.91 593.109 Q180.91 592.047 181.676 591.281 Q182.441 590.491 183.602 590.491 Q184.714 590.491 185.455 591.232 Q186.221 591.948 186.221 593.134 Q186.221 594.295 185.406 595.061 Q184.615 595.802 183.602 595.802 Q182.441 595.802 181.676 594.987 Z" fill="#000000" fill-rule="nonzero" fill-opacity="1" /><path clip-path="url(#clip310)" d="M193.187 587.65 Q193.187 586.143 194.003 585.575 Q194.818 584.982 195.682 584.982 Q196.843 584.982 197.51 585.723 Q198.202 586.439 198.202 587.452 Q198.202 588.465 197.51 589.206 Q196.843 589.922 195.682 589.922 Q195.114 589.922 194.818 589.824 Q195.485 592.146 197.51 593.826 Q199.561 595.505 202.254 595.505 Q205.638 595.505 207.664 592.22 Q208.874 590.095 208.874 585.278 Q208.874 581.029 207.96 578.905 Q206.552 575.669 203.662 575.669 Q199.561 575.669 197.14 579.201 Q196.843 579.646 196.498 579.671 Q196.004 579.671 195.88 579.399 Q195.781 579.102 195.781 578.337 L195.781 563.366 Q195.781 562.156 196.275 562.156 Q196.473 562.156 196.893 562.304 Q200.08 563.712 203.612 563.737 Q207.244 563.737 210.504 562.255 Q210.751 562.106 210.9 562.106 Q211.394 562.106 211.418 562.675 Q211.418 562.872 210.999 563.465 Q210.603 564.033 209.739 564.799 Q208.874 565.54 207.762 566.257 Q206.651 566.973 205.02 567.467 Q203.415 567.936 201.636 567.936 Q199.511 567.936 197.338 567.269 L197.338 577.126 Q199.956 574.557 203.76 574.557 Q207.812 574.557 210.603 577.818 Q213.395 581.079 213.395 585.624 Q213.395 590.392 210.084 593.653 Q206.799 596.913 202.352 596.913 Q198.301 596.913 195.732 594.023 Q193.187 591.133 193.187 587.65 Z" fill="#000000" fill-rule="nonzero" fill-opacity="1" /><path clip-path="url(#clip310)" d="M155.268 342.373 L155.268 340.792 Q161.345 340.792 164.482 337.556 Q165.347 337.556 165.495 337.754 Q165.643 337.951 165.643 338.865 L165.643 367.25 Q165.643 368.756 166.384 369.226 Q167.125 369.695 170.361 369.695 L171.967 369.695 L171.967 371.251 Q170.189 371.103 163.766 371.103 Q157.343 371.103 155.589 371.251 L155.589 369.695 L157.195 369.695 Q160.381 369.695 161.147 369.25 Q161.913 368.781 161.913 367.25 L161.913 341.039 Q159.27 342.373 155.268 342.373 Z" fill="#000000" fill-rule="nonzero" fill-opacity="1" /><path clip-path="url(#clip310)" d="M181.132 370.436 Q180.366 369.621 180.366 368.559 Q180.366 367.497 181.132 366.731 Q181.898 365.94 183.059 365.94 Q184.171 365.94 184.912 366.681 Q185.678 367.398 185.678 368.583 Q185.678 369.745 184.862 370.51 Q184.072 371.251 183.059 371.251 Q181.898 371.251 181.132 370.436 Z" fill="#000000" fill-rule="nonzero" fill-opacity="1" /><path clip-path="url(#clip310)" d="M192.1 355.071 Q192.1 347.635 193.978 343.584 Q196.596 337.556 202.772 337.556 Q204.082 337.556 205.44 337.927 Q206.824 338.272 208.553 339.631 Q210.307 340.99 211.369 343.213 Q213.395 347.512 213.395 355.071 Q213.395 362.457 211.517 366.484 Q208.775 372.363 202.723 372.363 Q200.45 372.363 198.128 371.202 Q195.831 370.041 194.373 367.25 Q192.1 363.075 192.1 355.071 M196.3 354.453 Q196.3 362.087 196.843 365.125 Q197.461 368.411 199.141 369.843 Q200.845 371.251 202.723 371.251 Q204.749 371.251 206.428 369.745 Q208.133 368.213 208.652 364.927 Q209.22 361.691 209.195 354.453 Q209.195 347.413 208.701 344.597 Q208.034 341.311 206.255 340.002 Q204.502 338.668 202.723 338.668 Q202.056 338.668 201.339 338.865 Q200.648 339.063 199.635 339.631 Q198.622 340.199 197.832 341.607 Q197.066 343.016 196.695 345.14 Q196.3 347.882 196.3 354.453 Z" fill="#000000" fill-rule="nonzero" fill-opacity="1" /><path clip-path="url(#clip310)" d="M155.811 117.823 L155.811 116.242 Q161.888 116.242 165.026 113.006 Q165.89 113.006 166.038 113.203 Q166.187 113.401 166.187 114.315 L166.187 142.699 Q166.187 144.206 166.928 144.675 Q167.669 145.145 170.905 145.145 L172.511 145.145 L172.511 146.701 Q170.732 146.553 164.309 146.553 Q157.886 146.553 156.132 146.701 L156.132 145.145 L157.738 145.145 Q160.925 145.145 161.691 144.7 Q162.456 144.231 162.456 142.699 L162.456 116.489 Q159.813 117.823 155.811 117.823 Z" fill="#000000" fill-rule="nonzero" fill-opacity="1" /><path clip-path="url(#clip310)" d="M181.676 145.886 Q180.91 145.071 180.91 144.008 Q180.91 142.946 181.676 142.18 Q182.441 141.39 183.602 141.39 Q184.714 141.39 185.455 142.131 Q186.221 142.847 186.221 144.033 Q186.221 145.194 185.406 145.96 Q184.615 146.701 183.602 146.701 Q182.441 146.701 181.676 145.886 Z" fill="#000000" fill-rule="nonzero" fill-opacity="1" /><path clip-path="url(#clip310)" d="M193.187 138.549 Q193.187 137.042 194.003 136.474 Q194.818 135.881 195.682 135.881 Q196.843 135.881 197.51 136.622 Q198.202 137.339 198.202 138.351 Q198.202 139.364 197.51 140.105 Q196.843 140.822 195.682 140.822 Q195.114 140.822 194.818 140.723 Q195.485 143.045 197.51 144.725 Q199.561 146.405 202.254 146.405 Q205.638 146.405 207.664 143.119 Q208.874 140.995 208.874 136.177 Q208.874 131.928 207.96 129.804 Q206.552 126.568 203.662 126.568 Q199.561 126.568 197.14 130.1 Q196.843 130.545 196.498 130.57 Q196.004 130.57 195.88 130.298 Q195.781 130.002 195.781 129.236 L195.781 114.266 Q195.781 113.055 196.275 113.055 Q196.473 113.055 196.893 113.203 Q200.08 114.611 203.612 114.636 Q207.244 114.636 210.504 113.154 Q210.751 113.006 210.9 113.006 Q211.394 113.006 211.418 113.574 Q211.418 113.772 210.999 114.364 Q210.603 114.933 209.739 115.698 Q208.874 116.439 207.762 117.156 Q206.651 117.872 205.02 118.366 Q203.415 118.836 201.636 118.836 Q199.511 118.836 197.338 118.169 L197.338 128.025 Q199.956 125.456 203.76 125.456 Q207.812 125.456 210.603 128.717 Q213.395 131.978 213.395 136.523 Q213.395 141.291 210.084 144.552 Q206.799 147.813 202.352 147.813 Q198.301 147.813 195.732 144.922 Q193.187 142.032 193.187 138.549 Z" fill="#000000" fill-rule="nonzero" fill-opacity="1" /><path clip-path="url(#clip310)" d="M43.8213 851.942 Q44.6586 851.942 46.3011 852.168 Q47.9436 852.393 50.3269 852.941 Q52.7101 853.488 55.2222 854.293 Q57.7342 855.066 60.2463 856.29 Q62.7261 857.514 64.6907 858.963 Q66.6552 860.413 67.8791 862.442 Q69.1029 864.47 69.1029 866.757 Q69.1029 867.82 68.9418 868.85 Q68.7808 869.881 68.2655 871.169 Q67.7502 872.458 66.9129 873.391 Q66.0433 874.325 64.4974 874.97 Q62.9516 875.614 60.9226 875.614 Q58.8292 875.614 56.0273 874.841 Q53.1932 874.036 47.3961 871.846 Q44.401 870.718 42.7585 870.718 Q42.0177 870.718 41.5669 870.879 Q41.0838 871.04 40.9227 871.363 Q40.7295 871.685 40.6973 871.878 Q40.6651 872.039 40.6651 872.361 Q40.6651 874.132 42.5008 875.936 Q44.3366 877.739 48.8454 879.028 Q49.6505 879.285 49.8438 879.446 Q50.037 879.607 50.037 880.09 Q50.0048 880.895 49.3607 880.895 Q49.1674 880.895 48.4267 880.67 Q47.6538 880.445 46.4944 880.026 Q45.3027 879.607 44.0789 878.866 Q42.8229 878.126 41.7279 877.224 Q40.6329 876.29 39.9244 874.97 Q39.2158 873.649 39.2158 872.168 Q39.2158 869.752 40.7939 868.271 Q42.3398 866.757 44.6264 866.757 Q45.8825 866.757 47.9114 867.562 Q51.5829 868.915 53.3542 869.527 Q55.1255 870.139 57.6376 870.783 Q60.1496 871.395 61.8888 871.395 Q64.5296 871.395 66.0755 870.171 Q67.6214 868.947 67.6214 866.499 Q67.6214 864.309 66.0433 862.345 Q64.433 860.348 62.1464 859.028 Q59.8276 857.707 57.2511 856.709 Q54.6424 855.71 52.6779 855.26 Q50.6811 854.777 49.7472 854.777 Q46.4944 854.777 44.3688 856.999 Q43.7569 857.611 43.3704 857.836 Q42.9839 858.062 42.372 858.062 Q41.2448 858.062 40.2464 857.063 Q39.2158 856.033 39.2158 854.841 Q39.2158 853.746 40.3108 852.844 Q41.4058 851.942 43.8213 851.942 Z" fill="#000000" fill-rule="nonzero" fill-opacity="1" /><path clip-path="url(#clip310)" d="M63.8651 822.189 Q65.1275 822.189 65.8489 822.978 Q66.5478 823.767 66.5478 824.668 Q66.5478 825.525 66.0518 825.976 Q65.5559 826.427 64.9246 826.427 Q64.068 826.427 63.324 825.796 Q62.58 825.164 62.4222 824.218 Q61.8361 825.142 61.8361 826.517 Q61.8361 827.419 62.3095 828.208 Q62.7829 828.974 63.3916 829.448 Q64.0003 829.899 64.8795 830.304 Q65.7362 830.688 66.2547 830.846 Q66.7507 830.981 67.2918 831.094 L73.6041 832.672 Q76.6025 833.438 77.662 833.438 Q78.9696 833.438 79.8488 832.807 Q80.7055 832.176 80.7055 830.913 Q80.7055 830.417 80.5702 829.854 Q80.4124 829.29 80.0066 828.569 Q79.5783 827.825 78.9471 827.171 Q78.2933 826.495 77.1886 825.841 Q76.084 825.187 74.6637 824.759 Q74.1677 824.623 74.1677 824.172 Q74.1677 823.609 74.6186 823.609 Q75.0018 823.609 75.8134 823.925 Q76.6025 824.218 77.6395 824.871 Q78.654 825.503 79.5783 826.337 Q80.4801 827.171 81.1113 828.411 Q81.7425 829.651 81.7425 831.003 Q81.7425 832.942 80.7055 834.227 Q79.6685 835.512 78.2257 835.986 Q78.4285 836.098 78.6991 836.256 Q78.9696 836.414 79.5783 836.887 Q80.1644 837.338 80.6153 837.857 Q81.0437 838.375 81.3818 839.187 Q81.7425 839.976 81.7425 840.833 Q81.7425 841.915 81.4269 842.884 Q81.1113 843.831 80.3899 844.507 Q79.6685 845.184 78.6765 845.184 Q77.5719 845.184 76.8054 844.44 Q76.0163 843.673 76.0163 842.636 Q76.0163 841.982 76.3996 841.464 Q76.7828 840.923 77.617 840.923 Q78.5413 840.923 79.2401 841.554 Q79.939 842.185 80.1194 843.087 Q80.7055 842.163 80.7055 840.787 Q80.7055 839.3 79.3979 838.127 Q78.0904 836.955 75.9036 836.391 Q70.6508 834.994 68.3062 834.453 Q65.9391 833.912 64.9246 833.912 Q63.9778 833.912 63.324 834.16 Q62.6702 834.408 62.3771 834.836 Q62.0615 835.242 61.9488 835.625 Q61.8361 835.986 61.8361 836.391 Q61.8361 837.068 62.1066 837.834 Q62.3771 838.578 63.0084 839.48 Q63.6171 840.359 64.8795 841.193 Q66.142 842.027 67.8779 842.591 Q68.3964 842.704 68.3964 843.2 Q68.3739 843.741 67.923 843.741 Q67.5397 843.741 66.7507 843.448 Q65.9391 843.132 64.9246 842.501 Q63.9101 841.847 63.0084 841.013 Q62.0841 840.156 61.4528 838.916 Q60.8216 837.654 60.8216 836.301 Q60.8216 835.693 60.9569 835.106 Q61.0696 834.498 61.4078 833.776 Q61.7459 833.032 62.4899 832.379 Q63.2338 831.725 64.3159 831.319 Q63.7974 831.048 63.3015 830.688 Q62.8055 830.304 62.1968 829.718 Q61.5656 829.11 61.2049 828.276 Q60.8216 827.419 60.8216 826.472 Q60.8216 825.548 61.0696 824.646 Q61.295 823.744 62.039 822.978 Q62.7604 822.189 63.8651 822.189 Z" fill="#000000" fill-rule="nonzero" fill-opacity="1" /><path clip-path="url(#clip310)" d="M68.5865 800.846 Q68.3324 800.846 67.7735 800.642 L18.6886 782.274 Q18.6377 782.274 18.3583 782.147 Q18.0788 782.02 17.901 781.943 Q17.6977 781.867 17.5453 781.715 Q17.3928 781.537 17.3928 781.334 Q17.3928 780.826 18.028 780.826 Q18.0788 780.826 18.6886 780.978 L67.8243 799.398 Q68.7135 799.702 68.9676 799.906 Q69.2217 800.084 69.2217 800.388 Q69.2217 800.846 68.5865 800.846 Z" fill="#000000" fill-rule="nonzero" fill-opacity="1" /><path clip-path="url(#clip310)" d="M68.3621 753.514 L66.3332 753.514 Q66.3332 750.004 65.9145 749.199 Q65.4636 748.393 63.338 748.393 L45.657 748.393 Q43.2094 748.393 42.5975 749.263 Q41.9855 750.1 41.9855 753.514 L39.9244 753.514 L39.2158 744.239 L46.1401 744.239 Q39.2158 741.147 39.2158 734.48 Q39.2158 726.751 45.657 725.688 Q43.145 724.561 41.1804 722.21 Q39.2158 719.827 39.2158 716.123 Q39.2158 711.163 41.6635 709.199 Q43.306 707.75 45.1417 707.46 Q46.9774 707.17 51.7439 707.17 L64.3364 707.17 Q65.7213 707.105 66.0433 706.043 Q66.3332 704.98 66.3332 702.017 L68.3621 702.017 Q68.1689 708.748 68.1689 709.392 Q68.1689 709.907 68.3621 716.864 L66.3332 716.864 Q66.3332 713.353 65.9145 712.548 Q65.4636 711.711 63.338 711.711 L47.9758 711.711 Q44.6264 711.711 42.6619 712.741 Q40.6651 713.772 40.6651 716.606 Q40.6651 720.02 43.5314 722.757 Q46.3977 725.495 51.2286 725.495 L63.338 725.495 Q65.4636 725.495 65.9145 724.69 Q66.3332 723.852 66.3332 720.342 L68.3621 720.342 Q68.1689 727.073 68.1689 727.749 Q68.1689 728.265 68.3621 735.189 L66.3332 735.189 Q66.3332 731.679 65.9145 730.873 Q65.4636 730.036 63.338 730.036 L47.9758 730.036 Q44.6264 730.036 42.6619 731.067 Q40.6651 732.097 40.6651 734.931 Q40.6651 738.345 43.5314 741.083 Q46.3977 743.82 51.2286 743.82 L63.338 743.82 Q65.4636 743.82 65.9145 743.015 Q66.3332 742.178 66.3332 738.699 L68.3621 738.699 Q68.1689 745.43 68.1689 746.075 Q68.1689 746.59 68.3621 753.514 Z" fill="#000000" fill-rule="nonzero" fill-opacity="1" /><path clip-path="url(#clip310)" d="M67.4926 690.411 L58.797 690.411 Q58.0563 690.411 57.7986 690.379 Q57.541 690.347 57.3477 690.154 Q57.1545 689.961 57.1545 689.574 Q57.1545 689.123 57.3477 688.962 Q57.541 688.769 58.2817 688.64 Q62.8227 687.642 65.2382 685.516 Q67.6214 683.358 67.6214 679.461 Q67.6214 675.758 65.9789 673.89 Q64.3364 672.022 61.6311 672.022 Q56.8002 672.022 55.5764 678.882 Q54.7713 682.843 54.256 684.486 Q53.7085 686.128 52.5169 687.577 Q50.198 690.411 46.913 690.411 Q43.628 690.411 41.2126 687.932 Q38.7972 685.42 38.7972 679.88 Q38.7972 676.176 40.6651 673.664 Q40.0854 672.924 39.6023 672.537 Q38.7972 671.668 38.7972 671.217 Q38.7972 670.701 39.1514 670.605 Q39.4735 670.508 40.4075 670.508 L47.0419 670.508 Q47.7826 670.508 48.0402 670.54 Q48.2979 670.573 48.4911 670.766 Q48.6522 670.959 48.6522 671.378 Q48.6522 672.119 48.0402 672.151 Q40.0532 672.666 40.0532 679.88 Q40.0532 683.777 41.5669 685.516 Q43.0483 687.255 45.0773 687.255 Q46.2045 687.255 47.0741 686.74 Q47.9114 686.192 48.4267 685.516 Q48.9098 684.808 49.3929 683.519 Q49.8438 682.231 50.0048 681.458 Q50.1658 680.653 50.4879 679.139 Q51.4863 673.858 53.6441 671.635 Q56.4138 668.866 59.9242 668.866 Q63.8211 668.866 66.462 671.507 Q69.1029 674.147 69.1029 679.461 Q69.1029 683.745 66.2366 686.74 Q66.623 687.126 66.9773 687.416 Q67.2993 687.706 67.4282 687.835 Q67.557 687.932 67.6536 687.964 Q67.718 687.996 67.7824 688.06 Q69.1029 689.381 69.1029 689.703 Q69.1029 690.218 68.7486 690.315 Q68.4266 690.411 67.4926 690.411 Z" fill="#000000" fill-rule="nonzero" fill-opacity="1" /><path clip-path="url(#clip310)" d="M36.0228 631.564 Q36.2933 631.293 36.6766 631.293 Q37.0598 631.293 37.3304 631.564 Q37.6009 631.834 37.6009 632.217 L37.6009 661.119 Q37.6009 661.502 37.3304 661.773 Q37.0598 662.043 36.6766 662.043 Q36.2933 662.043 36.0228 661.773 Q35.7523 661.502 35.7523 661.119 L35.7523 632.217 Q35.7523 631.834 36.0228 631.564 Z" fill="#000000" fill-rule="nonzero" fill-opacity="1" /><path clip-path="url(#clip310)" d="M21.8651 626.473 L20.4223 626.473 Q20.4223 620.927 17.469 618.064 Q17.469 617.275 17.6494 617.14 Q17.8297 617.005 18.6639 617.005 L44.567 617.005 Q45.9422 617.005 46.3706 616.328 Q46.7989 615.652 46.7989 612.699 L46.7989 611.234 L48.2192 611.234 Q48.0839 612.857 48.0839 618.718 Q48.0839 624.58 48.2192 626.18 L46.7989 626.18 L46.7989 624.715 Q46.7989 621.807 46.3931 621.108 Q45.9648 620.409 44.567 620.409 L20.6477 620.409 Q21.8651 622.821 21.8651 626.473 Z" fill="#000000" fill-rule="nonzero" fill-opacity="1" /><polyline clip-path="url(#clip312)" style="stroke:#009af9; stroke-linecap:round; stroke-linejoin:round; stroke-width:4; stroke-opacity:1; fill:none" points="1880.61,952.031 1513.2,1172.64 2035.48,637.354 2293.23,351.283 308.924,841.702 1400.51,951.514 1061.21,822.734 1062.13,86.1857 1279.6,1384.24 1555.19,494.893 "/>
<path clip-path="url(#clip310)" d="M319.507 196.789 L576.73 196.789 L576.73 93.1086 L319.507 93.1086  Z" fill="#ffffff" fill-rule="evenodd" fill-opacity="1"/>
<polyline clip-path="url(#clip310)" style="stroke:#000000; stroke-linecap:round; stroke-linejoin:round; stroke-width:4; stroke-opacity:1; fill:none" points="319.507,196.789 576.73,196.789 576.73,93.1086 319.507,93.1086 319.507,196.789 "/>
<polyline clip-path="url(#clip310)" style="stroke:#009af9; stroke-linecap:round; stroke-linejoin:round; stroke-width:4; stroke-opacity:1; fill:none" points="342.877,144.949 483.102,144.949 "/>
<path clip-path="url(#clip310)" d="M506.472 168.503 Q506.472 167.441 507.09 166.873 Q507.732 166.329 508.597 166.329 Q509.511 166.329 510.104 166.898 Q510.721 167.49 510.721 168.454 Q510.721 170.331 508.745 170.578 Q509.708 171.492 511.116 171.492 Q512.623 171.492 513.834 170.381 Q515.069 169.269 515.588 168.207 Q516.131 167.145 516.897 165.218 Q517.613 163.711 518.157 162.229 L510.573 143.751 Q510.079 142.54 509.313 142.268 Q508.547 141.997 506.472 141.997 L506.472 140.416 Q508.745 140.564 511.388 140.564 Q512.944 140.564 516.897 140.416 L516.897 141.997 Q514.056 141.997 514.056 143.306 Q514.056 143.454 514.353 144.22 L519.985 157.831 L525.099 145.381 Q525.395 144.665 525.395 144.17 Q525.395 142.095 523.023 141.997 L523.023 140.416 Q526.358 140.564 527.421 140.564 Q529.496 140.564 531.2 140.416 L531.2 141.997 Q527.816 141.997 526.507 145.233 L517.589 166.823 Q515.168 172.579 511.116 172.604 Q509.19 172.604 507.831 171.418 Q506.472 170.233 506.472 168.503 Z" fill="#000000" fill-rule="nonzero" fill-opacity="1" /><path clip-path="url(#clip310)" d="M536.66 133.35 L536.66 131.769 Q542.737 131.769 545.874 128.533 Q546.739 128.533 546.887 128.731 Q547.035 128.928 547.035 129.843 L547.035 158.227 Q547.035 159.734 547.776 160.203 Q548.517 160.672 551.753 160.672 L553.359 160.672 L553.359 162.229 Q551.581 162.08 545.158 162.08 Q538.735 162.08 536.981 162.229 L536.981 160.672 L538.587 160.672 Q541.773 160.672 542.539 160.228 Q543.305 159.758 543.305 158.227 L543.305 132.016 Q540.662 133.35 536.66 133.35 Z" fill="#000000" fill-rule="nonzero" fill-opacity="1" /></svg>
